<?xml version="1.0" encoding="utf-8"?>
<svg width="63px" height="140px" viewBox="0 0 63 140" version="1.1" xmlns:xlink="http://www.w3.org/1999/xlink" xmlns="http://www.w3.org/2000/svg">
  <desc>Created with Lunacy</desc>
  <path d="M2.50378 139.608C1.00029 139.326 -1.17693 138.917 0.77215 138.069L3.42922 136.913C8.29602 134.737 13.0968 132.293 17.1409 129.904C22.5361 126.724 27.9659 123.453 32.9197 119.091C38.45 114.219 42.7779 107.678 45.7502 99.657C49.5692 89.3509 52.4094 77.5785 52.6106 65.9758C52.7967 55.3363 51.0794 44.7685 47.8654 35.0802C45.3434 27.4739 42.0273 19.8921 37.9757 13.3657C37.3512 13.4189 36.7717 13.335 36.2193 13.1489C35.4897 12.8953 34.8427 12.429 34.2227 11.8563C33.9195 11.5679 33.6298 11.2387 33.3536 10.8828C33.0653 10.5371 32.7966 10.1629 32.5399 9.76404C32.0325 8.96025 31.5386 8.11556 31.1048 7.22179C30.2251 5.46287 29.4805 3.65078 28.9386 2.27841C28.6654 1.58916 28.4492 1.01649 28.2991 0.617666C28.2256 0.417232 28.1715 0.261792 28.131 0.155439C28.098 0.0490861 28.0799 0 28.0799 0C28.0799 0 28.1265 0 28.2045 0.00409051C28.2871 0.0122715 28.4192 0.0347693 28.5858 0.0572671C28.9131 0.12476 29.389 0.231114 29.9639 0.425413C31.1093 0.799694 32.6405 1.48894 34.1192 2.58929C35.5843 3.69577 37.0164 5.17858 37.9021 7.01931C38.3555 7.92331 38.6602 8.92957 38.8013 9.97265C38.9214 10.8562 38.8989 11.7929 38.7157 12.7624C40.8234 16.2352 42.7269 19.976 44.4292 23.729C50.2372 36.5405 53.9811 51.4504 53.4813 66.6548C53.121 77.6276 50.6621 88.5553 47.1808 98.4339C43.4189 109.106 37.7024 117.132 30.081 122.787C23.06 127.99 14.9462 133.449 6.51263 138.273C4.59283 139.207 5.14247 139.207 3.64539 139.881C3.50712 139.797 3.0499 139.711 2.50378 139.608ZM46.6766 24.0655C48.2236 22.5779 48.9399 20.4956 49.0558 18.1664C49.0977 17.0142 48.9995 15.8023 48.8015 14.5862C48.5922 13.3764 48.2574 12.1953 47.8839 11.0369C47.5056 9.88875 47.0356 8.83115 46.5913 7.84351C46.1454 6.85998 45.656 6.02049 45.2455 5.29622C44.8366 4.56577 44.4599 4.00405 44.1911 3.61105C43.9222 3.22628 43.7709 3.00818 43.7709 3.00818C43.7709 3.00818 43.6196 4.15631 43.4779 5.87646C43.3975 6.74887 43.3154 7.76738 43.2542 8.86201C43.2204 9.40316 43.1946 9.969 43.1753 10.5431C43.1528 11.1233 43.127 11.7221 43.1206 12.3167C43.1013 14.685 43.1834 17.1335 43.6808 19.189C43.9126 20.2343 44.2571 21.1787 44.7561 21.9915C45.2278 22.8269 45.8475 23.5285 46.6766 24.0655ZM37.0976 18.2626C38.613 18.5434 40.1383 19.192 41.3013 20.2813C41.8666 20.8375 42.3459 21.5039 42.6758 22.2609C42.9916 23.0445 43.1495 23.9348 43.1128 24.9086C41.5438 25.774 40.065 25.6993 38.7145 25.2018C38.028 24.9619 37.3796 24.6029 36.7748 24.1747C36.1531 23.7589 35.5596 23.2809 35.0268 22.7744C34.4812 22.2769 33.9624 21.7669 33.517 21.2622C33.0659 20.7628 32.6458 20.3008 32.3131 19.8797C31.9846 19.4585 31.6999 19.1227 31.5124 18.8721C31.3221 18.6216 31.2234 18.4776 31.2234 18.4776C31.2234 18.4776 31.9282 18.2857 33.0264 18.1436C33.572 18.0814 34.2035 18.0458 34.8999 18.0494C35.5991 18.0547 36.3519 18.108 37.0976 18.2626ZM53.4969 19.5532C53.4969 19.5532 53.1727 20.6012 52.7142 22.2414C52.2557 23.8876 51.7399 26.0336 51.2569 28.3223C51.0227 29.4646 50.8606 30.6069 50.7214 31.7452C50.5757 32.8915 50.5118 34.0057 50.5789 35.0597C50.6215 35.5776 50.6526 36.1056 50.7345 36.6035C50.8164 37.1094 50.9359 37.5932 51.1013 38.059C51.2634 38.5167 51.473 38.9624 51.735 39.386C51.9757 39.8116 52.2606 40.2231 52.6094 40.6106C53.5198 40.1388 54.2567 39.4643 54.8412 38.6271C55.4356 37.7819 55.8024 36.8042 56.0792 35.7061C56.2118 35.16 56.3133 34.5879 56.3854 33.9956C56.4574 33.4034 56.5082 32.7891 56.4983 32.1868C56.4951 30.9702 56.3919 29.7135 56.2298 28.4889C55.8352 26.0778 55.2048 23.7832 54.5825 22.1831C54.2861 21.3761 54.0176 20.7096 53.8277 20.2478C53.623 19.8022 53.4969 19.5532 53.4969 19.5532ZM46.5085 34.2219C46.7489 34.6465 46.9296 35.1196 47.088 35.608C47.2423 36.0921 47.366 36.6026 47.4507 37.1284C47.5355 37.6499 47.5786 38.1978 47.5786 38.7478C47.5605 39.3155 47.491 39.8942 47.3757 40.4729C46.5502 40.6973 45.7858 40.6313 45.0868 40.3915C44.3905 40.1428 43.7095 39.7226 43.1105 39.1769C42.8104 38.9063 42.5227 38.6048 42.2531 38.2792C42.1155 38.112 41.9849 37.9447 41.8556 37.7731C41.7236 37.5971 41.586 37.4299 41.454 37.2472C40.9328 36.5366 40.4645 35.7577 40.0545 34.9722C39.6084 34.1977 39.2123 33.41 38.8774 32.6597C38.794 32.4682 38.712 32.2856 38.6356 32.1052C38.5508 31.9292 38.4702 31.7509 38.391 31.5881C38.2339 31.2405 38.0936 30.9214 37.9657 30.6178C37.7128 30.0171 37.5266 29.5001 37.389 29.1414C37.2472 28.7828 37.1708 28.5781 37.1708 28.5781C37.1708 28.5781 37.3514 28.5737 37.6683 28.5979C37.9879 28.6155 38.4215 28.6683 38.9524 28.774C39.4819 28.8796 40.099 29.0336 40.773 29.28C41.1038 29.3966 41.4609 29.5331 41.8014 29.7069C42.1419 29.8741 42.4879 30.0699 42.8368 30.29C43.5275 30.73 44.2418 31.2559 44.8644 31.9182C45.4787 32.587 46.0429 33.3527 46.5085 34.2219ZM55.1799 52.385C55.0119 53.4735 54.9609 54.5369 55.0711 55.5859C55.122 56.1103 55.2336 56.6202 55.3506 57.1363C55.4676 57.6504 55.6301 58.1582 55.8463 58.6598C57.482 58.3101 58.7487 56.8908 59.5308 54.8533C59.9329 53.8356 60.2495 52.666 60.4946 51.4318C60.7149 50.1956 60.8209 48.8949 60.8981 47.6025C60.9297 46.9552 60.9586 46.3038 60.96 45.6732C60.949 45.0489 60.9256 44.437 60.8981 43.8459C60.8375 42.6618 60.7521 41.5629 60.6612 40.6284C60.4134 38.7887 60.1807 37.6024 60.1807 37.6024C60.1807 37.6024 59.7263 38.5806 59.1054 40.0977C58.8038 40.8407 58.4431 41.7252 58.0452 42.7034C57.6596 43.6795 57.2603 44.7263 56.8941 45.8023C56.5416 46.8657 56.1574 47.9854 55.8504 49.0884C55.5392 50.1977 55.3203 51.2986 55.1799 52.385ZM48.8096 49.6441C49.325 50.5094 49.7899 51.4447 50.1017 52.4414C50.3862 53.4446 50.5536 54.4944 50.5522 55.5442C50.5464 56.0744 50.5204 56.5962 50.4064 57.1243C50.2909 57.6417 50.1263 58.1571 49.9097 58.6597C48.17 58.4201 46.9183 57.2451 45.8484 55.7584C45.3301 55.0077 44.8912 54.1721 44.5216 53.2961C44.113 52.4266 43.755 51.5189 43.4677 50.626C43.3146 50.1785 43.1977 49.731 43.0591 49.2984C42.9176 48.8657 42.7891 48.4416 42.6765 48.0322C42.4397 47.2157 42.2737 46.4395 42.1221 45.7884C41.7785 44.4947 41.6312 43.6188 41.6312 43.6188C41.6312 43.6188 42.3416 43.869 43.3941 44.4523C44.4711 45.0185 45.769 45.9835 47.0583 47.3324C47.373 47.6717 47.7051 48.0238 47.9895 48.414C48.2768 48.8021 48.5526 49.2157 48.8096 49.6441ZM52.0376 72.2501C52.0154 72.7895 51.9552 73.3225 51.8475 73.8384C51.6369 74.8723 51.2425 75.8527 50.6265 76.7089C48.813 75.8655 47.6046 74.2387 46.8096 72.3743C46.61 71.9055 46.439 71.4174 46.2885 70.9251C46.1096 70.4264 45.9559 69.9212 45.8229 69.4096C45.5552 68.3864 45.3668 67.3525 45.2385 66.34C45.0991 65.3276 44.9407 64.3493 44.8711 63.4439C44.8299 62.9879 44.7998 62.5555 44.776 62.1467C44.7586 61.7336 44.7459 61.3504 44.7095 60.9972C44.5971 59.5844 44.605 58.6597 44.605 58.6597C44.605 58.6597 45.3113 59.1842 46.3139 60.1603C46.5641 60.4064 46.8333 60.6783 47.1168 60.9801C47.4035 61.2819 47.6917 61.6116 47.9657 61.969C48.5248 62.6818 49.1029 63.5038 49.6524 64.4093C49.9217 64.8695 50.1878 65.3404 50.4364 65.8413C50.5599 66.0853 50.6851 66.3315 50.7975 66.5905C50.9005 66.8431 51.0002 67.1021 51.0953 67.3632C51.4722 68.41 51.7604 69.5016 51.9172 70.5997C51.9932 71.1563 52.0487 71.7064 52.0376 72.2501ZM57.3246 65.0497C57.0221 65.4781 56.7273 65.9225 56.4433 66.3728C56.1655 66.8231 55.883 67.2774 55.599 67.7357C55.0511 68.6542 54.5772 69.6007 54.2361 70.563C54.0617 71.0472 53.932 71.5394 53.8163 72.0295C53.6882 72.5257 53.6017 73.0198 53.5585 73.5259C53.469 74.5361 53.5601 75.5822 53.8765 76.6761C55.7287 76.8973 57.2675 75.9847 58.544 74.3847C58.8619 73.9942 59.1629 73.5558 59.4485 73.0816C59.7217 72.6054 59.9563 72.0953 60.1878 71.5653C60.6416 70.4973 61.029 69.3416 61.3578 68.174C61.5337 67.5942 61.6449 67.0004 61.7529 66.4166C61.8594 65.8328 61.9551 65.257 62.0385 64.703C62.1974 63.5852 62.3363 62.5432 62.3873 61.6425C62.4691 59.8433 62.4428 58.6597 62.4428 58.6597C62.4428 58.6597 61.7637 59.393 60.8037 60.5706C59.8776 61.7461 58.5363 63.3222 57.3246 65.0497ZM48.4813 90.7549C48.1223 91.7148 47.5927 92.5711 46.8571 93.254C45.1835 91.9769 44.2294 90.0719 43.7205 88.0041C43.5928 87.4904 43.4923 86.9575 43.4189 86.4205C43.3822 86.1541 43.3519 85.8877 43.328 85.6171C43.2961 85.3464 43.2674 85.0758 43.2323 84.7988C43.1286 83.7057 43.0998 82.6084 43.1286 81.5618C43.2291 79.4644 43.328 77.4981 43.529 76.0603C43.6215 75.3393 43.7221 74.7516 43.7891 74.3435C43.8369 73.9333 43.8768 73.7007 43.8768 73.7007C43.8768 73.7007 44.0284 73.8889 44.2885 74.2336C44.5549 74.5824 44.8852 75.0835 45.2776 75.7242C46.0594 76.9927 47.039 78.8111 47.8368 80.9233C48.5866 83.0186 49.0732 85.3781 49.0653 87.6236C49.0685 88.1881 48.9951 88.7251 48.8977 89.2495C48.7972 89.7675 48.6632 90.2791 48.4813 90.7549ZM60.8389 80.5664C60.9277 80.0294 60.9601 79.7171 60.9601 79.7171C60.9601 79.7171 60.2754 80.2712 59.1837 81.1611C58.1187 82.0531 56.7255 83.2939 55.4027 84.7314C54.0363 86.1519 52.6882 87.7563 51.8119 89.6046C51.6021 90.0731 51.3767 90.533 51.1978 91.0207C51.0188 91.5042 50.8709 92.0069 50.7653 92.531C50.5469 93.5771 50.4892 94.7066 50.6258 95.9474C52.2543 96.6619 53.756 96.1099 55.1055 94.7986C55.4436 94.4734 55.7676 94.0969 56.0859 93.6926C56.4001 93.2797 56.717 92.8391 56.9833 92.3449C57.5341 91.3694 58.0384 90.2784 58.4892 89.1639C59.4274 86.9605 59.9923 84.5496 60.3952 82.7548C60.5952 81.8499 60.7459 81.0969 60.8389 80.5664ZM41.2455 91.1514C41.7241 92.6348 42.2998 94.7116 42.6971 97.0104C42.7955 97.5867 42.8847 98.18 42.9581 98.7734C43.0289 99.3283 43.0787 99.8982 43.1076 100.475C43.1299 101.053 43.1141 101.623 43.084 102.199C43.0499 102.769 42.966 103.32 42.8716 103.858C42.465 105.996 41.5196 107.749 40.0784 108.295C39.0766 106.301 38.7566 104.114 38.674 102.054C38.6056 100.015 38.7645 98.085 38.8983 96.4599L38.9048 96.3807C38.9494 95.6849 39.1238 94.5131 39.2812 93.5953C39.4438 92.6519 39.6208 91.8003 39.7847 91.0853C39.9486 90.3681 40.102 89.7876 40.2069 89.3799C40.3001 88.9722 40.3577 88.7417 40.3577 88.7417C40.3577 88.7417 40.46 88.9765 40.6239 89.3906C40.7957 89.8153 41.0042 90.4044 41.2455 91.1514ZM54.2508 107.568C54.4252 107.275 54.5981 106.976 54.7652 106.682L55.0114 106.227L55.2048 105.866C55.4554 105.39 55.6899 104.916 55.9112 104.451C56.3508 103.527 56.7319 102.641 57.0455 101.878C57.3547 101.111 57.5965 100.463 57.7562 100.011C57.9145 99.5509 57.9863 99.2703 57.9863 99.2703C57.9863 99.2703 57.2067 99.5852 55.9991 100.102C54.8033 100.629 53.2264 101.396 51.6949 102.387C51.3095 102.637 50.9329 102.895 50.5548 103.184C50.1518 103.497 49.7561 103.816 49.3795 104.137C48.9955 104.459 48.6174 104.77 48.2657 105.105C47.9125 105.434 47.5578 105.757 47.2457 106.112C45.956 107.497 44.9991 109.089 44.6049 111.435C46.0205 112.898 47.6809 113.148 49.3912 112.389C51.1014 111.649 52.8424 109.879 54.2508 107.568ZM33.8974 115.995C33.0009 117.775 31.7414 118.943 30.1845 118.814C29.5486 116.447 29.6591 114.187 30.0849 112.11C30.5161 110.034 31.2775 108.137 32.0471 106.48C32.8194 104.825 33.6067 103.417 34.1853 102.397C34.4678 101.89 34.7093 101.484 34.8812 101.204C35.045 100.925 35.1432 100.774 35.1432 100.774C35.1432 100.774 35.1951 101.027 35.2715 101.484C35.3533 101.947 35.4407 102.593 35.5212 103.4C35.6931 105.015 35.7682 107.23 35.5471 109.546C35.3301 111.853 34.7952 114.219 33.8974 115.995ZM22.3533 124.908C21.7103 125.549 20.997 126.033 20.2299 126.23C19.4628 126.435 18.6359 126.382 17.8449 125.924C17.7986 123.491 18.292 121.567 19.0666 119.878C19.8486 118.203 20.9537 116.751 22.0946 115.504C23.2355 114.261 24.4018 113.219 25.2811 112.476C26.1603 111.735 26.7629 111.303 26.7629 111.303C26.7629 111.303 26.7539 111.566 26.7255 112.024C26.6911 112.476 26.6358 113.127 26.5401 113.908C26.3427 115.468 25.9704 117.559 25.293 119.591C24.6186 121.623 23.6377 123.607 22.3533 124.908ZM41.7981 117.355C39.9683 117.431 38.1066 117.597 36.516 118.224C34.9193 118.856 33.5847 119.946 32.7102 121.952C33.8041 123.848 35.3703 124.723 37.1406 124.828C38.9079 124.938 40.8657 124.277 42.6589 123.237C44.4521 122.194 46.0792 120.778 47.2249 119.559C47.8023 118.966 48.2609 118.407 48.5793 118.028C48.8932 117.634 49.0653 117.398 49.0653 117.398C49.0653 117.398 48.1878 117.376 46.7922 117.347C46.4831 117.345 46.1507 117.34 45.8001 117.336C44.6096 117.32 43.2093 117.302 41.7981 117.355ZM28.8017 136.532C30.6844 136.087 32.4117 135.249 33.6589 134.507C34.9077 133.763 35.6839 133.143 35.6839 133.143C35.6839 133.143 34.8884 132.706 33.6737 132.143C32.4516 131.568 30.8222 130.853 29.1024 130.265C27.3811 129.692 25.5932 129.265 23.9489 129.368C23.1209 129.413 22.3388 129.612 21.5803 129.984C20.8189 130.366 20.1094 130.939 19.3287 131.755C19.8309 134.133 21.3374 135.641 23.1061 136.333C24.8836 137.046 26.9278 136.988 28.8017 136.532Z" transform="matrix(-1 0 0 1 62.4469 0)" id="Combined-Shape-Copy-2" fill="#0A00A3" fill-rule="evenodd" stroke="none" />
</svg>