<?xml version="1.0" encoding="utf-8"?>
<svg width="40px" height="60px" viewBox="0 0 40 60" version="1.1" xmlns:xlink="http://www.w3.org/1999/xlink" xmlns="http://www.w3.org/2000/svg">
  <desc>Created with Lunacy</desc>
  <path d="M0 9.90434L0 48.8049Q0 48.9791 0.0121316 49.1529Q0.0242633 49.3267 0.0484677 49.4993Q0.0726721 49.6718 0.108832 49.8423Q0.144991 50.0127 0.192931 50.1803Q0.24087 50.3478 0.300357 50.5115Q0.359843 50.6753 0.430588 50.8345Q0.501333 50.9938 0.582993 51.1477Q0.664653 51.3016 0.756832 51.4495Q0.84901 51.5973 0.95126 51.7384Q1.05351 51.8795 1.16533 52.0131Q1.27716 52.1468 1.39802 52.2723Q1.51887 52.3978 1.64818 52.5146Q1.77748 52.6314 1.9146 52.7389Q2.05172 52.8464 2.19599 52.9441Q2.34027 53.0418 2.49099 53.1292Q2.64172 53.2166 2.79816 53.2933Q2.95461 53.37 3.11602 53.4357Q3.27742 53.5013 3.44301 53.5555Q3.60859 53.6098 3.77755 53.6523Q3.94651 53.6949 4.11803 53.7256Q4.28954 53.7563 4.46278 53.775Q4.63601 53.7937 4.81013 53.8003Q4.98425 53.8069 5.1584 53.8013Q5.33255 53.7958 5.50589 53.7781Q5.67924 53.7604 5.85093 53.7307Q6.02262 53.701 6.19183 53.6595Q6.36104 53.6179 6.52694 53.5646Q6.69284 53.5114 6.85463 53.4467Q7.01642 53.382 7.17332 53.3062Q7.33022 53.2304 7.48145 53.1439Q7.63269 53.0574 7.77754 52.9605Q7.92239 52.8637 8.06014 52.757L33.774 32.8402Q33.8881 32.7519 33.9969 32.6571Q34.1057 32.5623 34.2088 32.4614Q34.3119 32.3605 34.4091 32.2539Q34.5062 32.1472 34.597 32.0351Q34.6879 31.923 34.7721 31.8058Q34.8563 31.6887 34.9336 31.5669Q35.0109 31.445 35.0811 31.319Q35.1512 31.1929 35.214 31.063Q35.2768 30.9331 35.3319 30.7998Q35.3871 30.6665 35.4345 30.5302Q35.4819 30.3939 35.5214 30.2551Q35.5608 30.1164 35.5922 29.9755Q35.6236 29.8347 35.6468 29.6923Q35.67 29.5499 35.685 29.4064Q35.6999 29.2629 35.7066 29.1188Q35.7132 28.9747 35.7116 28.8304Q35.7099 28.6861 35.6999 28.5422Q35.6899 28.3983 35.6717 28.2552Q35.6534 28.112 35.6269 27.9702Q35.6004 27.8284 35.5658 27.6883Q35.5312 27.5483 35.4885 27.4104Q35.4459 27.2726 35.3953 27.1375Q35.3448 27.0023 35.2866 26.8703Q35.2284 26.7383 35.1626 26.6099Q35.0968 26.4815 35.0238 26.3571Q34.9508 26.2326 34.8706 26.1126Q34.7905 25.9926 34.7037 25.8775Q34.6168 25.7623 34.5234 25.6523Q34.43 25.5423 34.3304 25.4379Q34.2308 25.3335 34.1254 25.235Q34.02 25.1365 33.909 25.0443Q33.7981 24.9521 33.682 24.8664L7.96812 5.88261Q7.82939 5.78019 7.68394 5.68758Q7.53849 5.59496 7.387 5.51259Q7.23551 5.43022 7.0787 5.35848Q6.9219 5.28674 6.76052 5.22598Q6.59914 5.16522 6.43397 5.11572Q6.26879 5.06622 6.10059 5.02823Q5.93239 4.99023 5.76198 4.96391Q5.59156 4.93759 5.41974 4.92308Q5.24791 4.90857 5.0755 4.90593Q4.90308 4.90329 4.73089 4.91254Q4.55871 4.92179 4.38756 4.94288Q4.21642 4.96397 4.04714 4.9968Q3.87786 5.02963 3.71124 5.07405Q3.54463 5.11847 3.38147 5.17427Q3.21831 5.23006 3.05938 5.29697Q2.90045 5.36388 2.74651 5.44157Q2.59258 5.51927 2.44436 5.60739Q2.29614 5.69551 2.15434 5.79363Q2.01255 5.89176 1.87785 5.99942Q1.74315 6.10708 1.61619 6.22377Q1.48924 6.34045 1.37062 6.46561Q1.252 6.59077 1.1423 6.7238Q1.03259 6.85684 0.932303 6.99711Q0.832021 7.13739 0.741643 7.28424Q0.651265 7.4311 0.571221 7.58383Q0.491177 7.73656 0.421848 7.89445Q0.352518 8.05233 0.294233 8.21462Q0.235947 8.37691 0.188983 8.54282Q0.142019 8.70874 0.106599 8.8775Q0.0711785 9.04626 0.0474711 9.21706Q0.0237638 9.38785 0.0118819 9.55988Q0 9.73191 0 9.90434Z" transform="translate(0.5 0.5)" id="Path-2" fill="#FFD40E" stroke="none" />
</svg>