<?xml version="1.0" encoding="utf-8"?>
<svg width="66px" height="66px" viewBox="0 0 66 66" version="1.1" xmlns:xlink="http://www.w3.org/1999/xlink" xmlns="http://www.w3.org/2000/svg">
  <desc>Created with Lunacy</desc>
  <g id="iconfinder_06-facebook_104498" transform="translate(26.55249 19.05399)">
    <path d="M12.627 8.79919L8.32669 8.79919L8.32669 5.97881C8.32669 4.91963 9.02869 4.67269 9.52312 4.67269C10.0164 4.67269 12.5578 4.67269 12.5578 4.67269L12.5578 0.0163125L8.37844 0C3.73894 0 2.68313 3.47288 2.68313 5.69531L2.68313 8.79919L0 8.79919L0 13.5973L2.68313 13.5973C2.68313 19.755 2.68313 27.1744 2.68313 27.1744L8.32669 27.1744C8.32669 27.1744 8.32669 19.6819 8.32669 13.5973L12.1348 13.5973L12.627 8.79919Z" id="Path" fill="#000000" stroke="none" />
  </g>
  <path d="M32 64C49.6731 64 64 49.6731 64 32C64 14.3269 49.6731 0 32 0C14.3269 0 0 14.3269 0 32C0 49.6731 14.3269 64 32 64Z" transform="matrix(-1 0 0 1 65 1)" id="Oval" fill="none" stroke="#DDDCE4" stroke-width="2" stroke-linecap="round" stroke-linejoin="round" stroke-dasharray="5 5" />
</svg>