<?xml version="1.0" encoding="utf-8"?>
<svg width="54px" height="54px" viewBox="0 0 54 54" version="1.1" xmlns:xlink="http://www.w3.org/1999/xlink" xmlns="http://www.w3.org/2000/svg">
  <desc>Created with Lunacy</desc>
  <g id="Group-8" transform="translate(0.8000488 0.7999992)">
    <path d="M25.56 51.12C39.6764 51.12 51.12 39.6764 51.12 25.56C51.12 11.4436 39.6764 0 25.56 0C11.4436 0 0 11.4436 0 25.56C0 39.6764 11.4436 51.12 25.56 51.12Z" transform="matrix(-1 0 0 1 51.12 0)" id="Oval" fill="#FFFFFF" stroke="#FFD40E" stroke-width="1.6" stroke-linecap="round" stroke-linejoin="round" stroke-dasharray="4 4" />
    <g id="Group-8" transform="translate(13.6 16)">
      <g id="iconfinder_cart4_216460" transform="translate(0.08 0.16)">
        <path d="M20.0402 9.2C19.86 9.90333 19.309 11.6208 19.309 11.6208C19.1794 11.9736 19.0354 12.24 18.3038 12.24C18.3038 12.24 16.1919 12.2881 15.4304 12.24C14.3148 12.1695 13.6935 11.9407 13.0535 11.9407C12.3124 11.9407 11.5448 12.146 10.422 12.24C9.90895 12.2829 8.59896 12.24 8.59896 12.24L8.68752 12.7116C9.32688 12.7368 9.95904 12.96 10.422 13.68C10.422 13.68 12.6989 13.4762 13.7116 13.4762C14.825 13.4762 16.8005 13.68 16.8005 13.68C17.1691 13.14 17.9626 12.78 18.6314 12.78C20.2399 12.78 21.0499 13.9615 21.0499 15.2942C21.0499 16.6342 19.9591 17.7962 18.6178 17.7962C17.1461 17.7962 16.3634 16.56 16.2065 15.84L11.0153 15.84C10.8583 16.56 9.89208 17.7674 8.60328 17.7674C7.23816 17.7674 6.16968 16.5305 6.16968 15.1884C6.16968 14.5786 6.40008 13.9248 6.82344 13.4762C6.82344 13.4762 6.84341 8.98779 6.38137 7.02614C5.95493 5.21571 4.158 2.16 4.158 2.16L0.67536 2.16C0.23184 2.16 0 2.0592 0 1.67256L0 0.59976C0 0.20016 0.23256 0 0.66024 0L4.78512 0C5.41512 0 5.7276 0.41832 5.83344 0.8568L6.22512 2.71512C6.22512 2.71512 11.5011 3.10057 13.9026 3.10104C16.3935 3.10153 20.9023 2.718 20.9023 2.718C21.0096 2.718 21.5633 2.7216 21.8326 3.10104C21.9377 3.24936 22.0363 3.474 21.906 3.84768C21.906 3.84768 20.9002 5.8585 20.5101 7.02614C20.3321 7.55869 20.2706 8.30046 20.0402 9.2ZM8.58384 16.1906C9.09288 16.1906 9.5076 15.7752 9.5076 15.2647C9.5076 14.7542 9.09288 14.3388 8.58384 14.3388C8.07336 14.3388 7.65792 14.7542 7.65792 15.2647C7.65792 15.7752 8.07336 16.1892 8.58384 16.1906ZM18.6358 14.3503C19.1405 14.3503 19.5502 14.76 19.5502 15.2647C19.5502 15.7694 19.1405 16.1791 18.6358 16.1791C18.131 16.1791 17.7206 15.7702 17.7206 15.2647C17.7214 14.76 18.131 14.3503 18.6358 14.3503Z" id="Shape" fill="#0A00A3" fill-rule="evenodd" stroke="none" />
      </g>
    </g>
  </g>
</svg>