<?xml version="1.0" encoding="utf-8"?>
<svg width="21px" height="9px" viewBox="0 0 21 9" version="1.1" xmlns:xlink="http://www.w3.org/1999/xlink" xmlns="http://www.w3.org/2000/svg">
  <desc>Created with Lunacy</desc>
  <path d="M1.43481 0L13.5652 0Q13.6357 0 13.7058 0.006909Q13.776 0.013818 13.8451 0.0275695Q13.9142 0.0413209 13.9817 0.0617824Q14.0491 0.0822439 14.1143 0.109218Q14.1794 0.136193 14.2416 0.169421Q14.3037 0.202648 14.3623 0.241809Q14.4209 0.28097 14.4754 0.325687Q14.5299 0.370404 14.5798 0.420246Q14.6296 0.470088 14.6743 0.524576Q14.719 0.579064 14.7582 0.637672Q14.7974 0.696281 14.8306 0.758445Q14.8638 0.82061 14.8908 0.885732Q14.9178 0.950854 14.9382 1.01831Q14.9587 1.08576 14.9724 1.15489Q14.9862 1.22403 14.9931 1.29417Q15 1.36432 15 1.43481L15 1.43681Q15 1.5073 14.9931 1.57745Q14.9862 1.64759 14.9724 1.71673Q14.9587 1.78586 14.9382 1.85331Q14.9178 1.92077 14.8908 1.98589Q14.8638 2.05101 14.8306 2.11317Q14.7974 2.17534 14.7582 2.23395Q14.719 2.29256 14.6743 2.34704Q14.6296 2.40153 14.5798 2.45137Q14.5299 2.50122 14.4754 2.54593Q14.4209 2.59065 14.3623 2.62981Q14.3037 2.66897 14.2416 2.7022Q14.1794 2.73543 14.1143 2.7624Q14.0491 2.78938 13.9817 2.80984Q13.9142 2.8303 13.8451 2.84405Q13.776 2.8578 13.7058 2.86471Q13.6357 2.87162 13.5652 2.87162L1.43481 2.87162Q1.36432 2.87162 1.29417 2.86471Q1.22403 2.8578 1.15489 2.84405Q1.08576 2.8303 1.01831 2.80984Q0.950854 2.78938 0.885732 2.7624Q0.82061 2.73543 0.758445 2.7022Q0.696281 2.66897 0.637672 2.62981Q0.579064 2.59065 0.524576 2.54593Q0.470088 2.50122 0.420246 2.45137Q0.370404 2.40153 0.325687 2.34704Q0.28097 2.29256 0.241809 2.23395Q0.202648 2.17534 0.169421 2.11317Q0.136193 2.05101 0.109218 1.98589Q0.0822439 1.92077 0.0617824 1.85331Q0.0413209 1.78586 0.0275695 1.71673Q0.013818 1.64759 0.006909 1.57745Q0 1.5073 0 1.43681L0 1.43481Q0 1.36432 0.006909 1.29417Q0.013818 1.22403 0.0275695 1.15489Q0.0413209 1.08576 0.0617824 1.01831Q0.0822439 0.950854 0.109218 0.885732Q0.136193 0.82061 0.169421 0.758445Q0.202648 0.696281 0.241809 0.637672Q0.28097 0.579064 0.325687 0.524576Q0.370404 0.470088 0.420246 0.420246Q0.470088 0.370404 0.524576 0.325687Q0.579064 0.28097 0.637672 0.241809Q0.696281 0.202648 0.758445 0.169421Q0.82061 0.136193 0.885732 0.109218Q0.950854 0.0822439 1.01831 0.0617824Q1.08576 0.0413209 1.15489 0.0275695Q1.22403 0.013818 1.29417 0.006909Q1.36432 0 1.43481 0L1.43481 0Z" transform="translate(3 3)" id="Rectangle-Copy-69" fill="#0A00A3" stroke="#979797" stroke-opacity="0" stroke-width="6" />
</svg>