<?xml version="1.0" encoding="utf-8"?>
<svg width="24px" height="24px" viewBox="0 0 24 24" version="1.1" xmlns:xlink="http://www.w3.org/1999/xlink" xmlns="http://www.w3.org/2000/svg">
  <desc>Created with Lunacy</desc>
  <path d="M14.2925 11.1172C18.1289 7.63093 20.5433 6.6704 21.413 3.97748C21.6523 2.6248 21.1984 1.37157 20.6823 0.454153C20.1748 -0.447876 18.9827 -0.463251 18.2672 0.284496C15.2263 3.46203 14.2675 5.02368 11.312 8.19912C7.88308 4.40775 6.91742 2.02014 4.24272 1.15633C2.89004 0.916949 1.63681 1.37088 0.719393 1.88702C-0.182636 2.39449 -0.198011 3.58654 0.549736 4.30212C3.70415 7.32086 5.26611 8.28774 8.39531 11.1931C4.06947 15.4633 3.36344 15.4238 0.947464 17.6306C0.183289 18.3286 0.188898 19.5215 0.92074 20.2533L1.70379 21.0364C2.43564 21.7682 3.69102 21.8426 4.42952 21.1175C5.92097 19.6531 6.39354 18.6525 8.22636 17.1641C10.3775 15.4171 10.7698 14.8754 11.3898 14.1045C15.729 18.4923 15.6773 19.193 17.8959 21.6218C18.5939 22.386 19.7867 22.3804 20.5186 21.6485L21.3016 20.8655C22.0335 20.1336 22.1079 18.8783 21.3828 18.1398C19.9183 16.6483 18.9178 16.1757 17.4293 14.3429C15.6245 12.1206 15.1061 11.7755 14.2925 11.1172L14.2925 11.1172Z" transform="translate(0.625 0.625)" id="Combined-Shape" fill="#0001A3" fill-rule="evenodd" stroke="none" />
</svg>