<svg xmlns="http://www.w3.org/2000/svg" viewBox="0 0 137 129"><g id="Layer_2" data-name="Layer 2"><g id="Layer_1-2" data-name="Layer 1"><rect width="137" height="129" rx="10" fill="#0a00a3"/><path id="Path-2" d="M51,45.35v38.9c0,.12,0,.24,0,.35s0,.23,0,.35a2,2,0,0,0,.06.34c0,.11,0,.23.08.34s.07.22.11.33a3.05,3.05,0,0,0,.13.32l.15.32.18.3.19.29.22.27a2.85,2.85,0,0,0,.23.26,1.88,1.88,0,0,0,.25.24l.26.23.29.2a2.9,2.9,0,0,0,.29.19l.31.16.32.14a1.75,1.75,0,0,0,.32.12l.34.1.34.07a2,2,0,0,0,.34,0l.35,0h.35l.35,0,.34,0,.34-.07.34-.1.32-.11.32-.14.31-.17c.1,0,.2-.12.3-.18l.28-.2L84.77,68.29l.23-.18.21-.2.2-.21c.06-.07.13-.14.19-.22a2,2,0,0,0,.17-.23,1.88,1.88,0,0,0,.16-.23l.15-.25c0-.09.09-.17.13-.26a1.23,1.23,0,0,0,.12-.26c0-.09.07-.18.1-.27a1.31,1.31,0,0,0,.09-.28,2.29,2.29,0,0,0,.07-.28l.06-.28a2.7,2.7,0,0,1,0-.28,2.64,2.64,0,0,1,0-.29v-.29a2.81,2.81,0,0,0,0-.29l0-.29c0-.09,0-.19,0-.28l-.06-.28c0-.1,0-.19-.08-.28l-.09-.27-.11-.27a2.1,2.1,0,0,0-.13-.26,2,2,0,0,0-.14-.25,2.07,2.07,0,0,0-.15-.25,2,2,0,0,0-.17-.23,1.3,1.3,0,0,0-.18-.23l-.19-.21-.2-.21-.22-.19-.23-.17L59,41.33a2.9,2.9,0,0,0-.29-.19,2.82,2.82,0,0,0-.29-.18l-.31-.15-.32-.13-.33-.12-.33-.08-.34-.07-.34,0h-.69l-.34,0a3.43,3.43,0,0,0-.34.06l-.34.07-.33.1-.32.13-.31.14a3.07,3.07,0,0,0-.31.17l-.29.18-.27.21-.26.22-.25.24-.23.26-.21.28-.19.28c-.06.1-.12.2-.17.3l-.15.31c0,.11-.09.22-.13.32s-.07.22-.1.33a3.38,3.38,0,0,0-.08.34,1.86,1.86,0,0,0-.06.34c0,.11,0,.22,0,.34S51,45.24,51,45.35Z" fill="#ffd40e"/></g></g></svg>