<?xml version="1.0" encoding="utf-8"?>
<svg width="173px" height="170px" viewBox="0 0 173 170" version="1.1" xmlns:xlink="http://www.w3.org/1999/xlink" xmlns="http://www.w3.org/2000/svg">
  <desc>Created with Lunacy</desc>
  <g id="Group-11" transform="matrix(-0.6691307 0.7431448 -0.7431448 -0.6691307 169.3929 93.15723)">
    <path d="M76.9808 117C76.9808 117 102.287 0 0 0" transform="translate(16.30786 17.51433)" id="Path-3" fill="none" stroke="#0A00A3" stroke-width="4" stroke-linecap="round" stroke-linejoin="round" stroke-dasharray="8 8" />
    <g id="Group-10" transform="matrix(0.7660444 -0.6427876 0.6427876 0.7660444 0.3875504 16.59969)">
      <path d="M1.499 0L2.501 0Q2.57464 0 2.64793 0.00721809Q2.72121 0.0144362 2.79344 0.0288029Q2.86567 0.0431695 2.93614 0.0645464Q3.00661 0.0859233 3.07464 0.114105Q3.14268 0.142286 3.20762 0.177Q3.27257 0.211714 3.3338 0.252627Q3.39503 0.29354 3.45196 0.340257Q3.50888 0.386975 3.56095 0.439047Q3.61303 0.491119 3.65974 0.548044Q3.70646 0.60497 3.74737 0.6662Q3.78829 0.727431 3.823 0.792376Q3.85771 0.857322 3.8859 0.925357Q3.91408 0.993393 3.93545 1.06386Q3.95683 1.13433 3.9712 1.20656Q3.98556 1.27879 3.99278 1.35207Q4 1.42536 4 1.499L4 22.3822Q4 22.4558 3.99278 22.5291Q3.98556 22.6024 3.9712 22.6746Q3.95683 22.7469 3.93545 22.8173Q3.91408 22.8878 3.8859 22.9558Q3.85771 23.0239 3.823 23.0888Q3.78829 23.1538 3.74737 23.215Q3.70646 23.2762 3.65974 23.3331Q3.61303 23.3901 3.56095 23.4421Q3.50888 23.4942 3.45196 23.5409Q3.39503 23.5876 3.3338 23.6286Q3.27257 23.6695 3.20762 23.7042Q3.14268 23.7389 3.07464 23.7671Q3.00661 23.7953 2.93614 23.8166Q2.86567 23.838 2.79344 23.8524Q2.72121 23.8668 2.64793 23.874Q2.57464 23.8812 2.501 23.8812L1.499 23.8812Q1.42536 23.8812 1.35207 23.874Q1.27879 23.8668 1.20656 23.8524Q1.13433 23.838 1.06386 23.8166Q0.993393 23.7953 0.925357 23.7671Q0.857322 23.7389 0.792376 23.7042Q0.727431 23.6695 0.6662 23.6286Q0.60497 23.5876 0.548044 23.5409Q0.491119 23.4942 0.439047 23.4421Q0.386975 23.3901 0.340257 23.3331Q0.29354 23.2762 0.252627 23.215Q0.211714 23.1538 0.177 23.0888Q0.142286 23.0239 0.114105 22.9558Q0.0859233 22.8878 0.0645464 22.8173Q0.0431695 22.7469 0.0288029 22.6746Q0.0144362 22.6024 0.00721809 22.5291Q0 22.4558 0 22.3822L0 1.499Q0 1.42536 0.00721809 1.35207Q0.0144362 1.27879 0.0288029 1.20656Q0.0431695 1.13433 0.0645464 1.06386Q0.0859233 0.993393 0.114105 0.925357Q0.142286 0.857322 0.177 0.792376Q0.211714 0.727431 0.252627 0.6662Q0.29354 0.60497 0.340257 0.548044Q0.386975 0.491119 0.439047 0.439047Q0.491119 0.386975 0.548044 0.340257Q0.60497 0.29354 0.6662 0.252627Q0.727431 0.211714 0.792376 0.177Q0.857322 0.142286 0.925357 0.114105Q0.993393 0.0859233 1.06386 0.0645464Q1.13433 0.0431695 1.20656 0.0288029Q1.27879 0.0144362 1.35207 0.00721809Q1.42536 0 1.499 0L1.499 0Z" transform="translate(3 1.421085E-13)" id="Rectangle" fill="#0A00A3" stroke="none" />
      <path d="M1.499 5.11653e-13L2.4812 5.11653e-13Q2.55484 5.11653e-13 2.62813 0.00721809Q2.70141 0.0144362 2.77364 0.0288029Q2.84586 0.0431695 2.91633 0.0645464Q2.9868 0.0859233 3.05484 0.114105Q3.12288 0.142286 3.18782 0.177Q3.25277 0.211714 3.314 0.252627Q3.37523 0.29354 3.43215 0.340257Q3.48908 0.386975 3.54115 0.439047Q3.59322 0.491119 3.63994 0.548044Q3.68666 0.60497 3.72757 0.6662Q3.76848 0.727431 3.8032 0.792376Q3.83791 0.857322 3.86609 0.925357Q3.89427 0.993393 3.91565 1.06386Q3.93703 1.13433 3.95139 1.20656Q3.96576 1.27879 3.97298 1.35207Q3.9802 1.42536 3.9802 1.499L3.9802 22.501Q3.9802 22.5746 3.97298 22.6479Q3.96576 22.7212 3.95139 22.7934Q3.93703 22.8657 3.91565 22.9361Q3.89427 23.0066 3.86609 23.0746Q3.83791 23.1427 3.8032 23.2076Q3.76848 23.2726 3.72757 23.3338Q3.68666 23.395 3.63994 23.452Q3.59322 23.5089 3.54115 23.561Q3.48908 23.613 3.43215 23.6597Q3.37523 23.7065 3.314 23.7474Q3.25277 23.7883 3.18782 23.823Q3.12288 23.8577 3.05484 23.8859Q2.9868 23.9141 2.91633 23.9354Q2.84586 23.9568 2.77364 23.9712Q2.70141 23.9856 2.62813 23.9928Q2.55484 24 2.4812 24L1.499 24Q1.42536 24 1.35207 23.9928Q1.27879 23.9856 1.20656 23.9712Q1.13433 23.9568 1.06386 23.9355Q0.993393 23.9141 0.925357 23.8859Q0.857322 23.8577 0.792376 23.823Q0.727431 23.7883 0.6662 23.7474Q0.60497 23.7065 0.548044 23.6597Q0.491119 23.613 0.439047 23.561Q0.386975 23.5089 0.340257 23.452Q0.29354 23.395 0.252627 23.3338Q0.211714 23.2726 0.177 23.2076Q0.142286 23.1427 0.114105 23.0746Q0.0859233 23.0066 0.0645464 22.9361Q0.0431695 22.8657 0.0288029 22.7934Q0.0144362 22.7212 0.00721809 22.6479Q-2.33981e-13 22.5746 -2.33981e-13 22.501L-2.33981e-13 1.499Q-2.33981e-13 1.42536 0.00721809 1.35207Q0.0144362 1.27879 0.0288029 1.20656Q0.0431695 1.13433 0.0645464 1.06386Q0.0859233 0.993393 0.114105 0.925357Q0.142286 0.857322 0.177 0.792376Q0.211714 0.727431 0.252627 0.6662Q0.29354 0.60497 0.340257 0.548044Q0.386975 0.491119 0.439047 0.439047Q0.491119 0.386975 0.548044 0.340257Q0.60497 0.29354 0.6662 0.252627Q0.727431 0.211714 0.792376 0.177Q0.857322 0.142286 0.925357 0.114105Q0.993393 0.0859233 1.06386 0.0645464Q1.13433 0.0431695 1.20656 0.0288029Q1.27879 0.0144362 1.35207 0.00721809Q1.42536 5.11653e-13 1.499 5.11653e-13L1.499 5.11653e-13Z" transform="matrix(-4.371139E-08 -1 1 -4.371139E-08 0.7949066 6.772721)" id="Rectangle-Copy-72" fill="#0A00A3" stroke="none" />
    </g>
  </g>
</svg>