<?xml version="1.0" encoding="utf-8"?>
<svg width="51px" height="54px" viewBox="0 0 51 54" version="1.1" xmlns:xlink="http://www.w3.org/1999/xlink" xmlns="http://www.w3.org/2000/svg">
  <desc>Created with Lunacy</desc>
  <path d="M11.0313 3.27442C11.0099 3.26191 10.9923 3.25083 10.9937 3.2444C10.8664 3.15972 10.9402 3.13685 11.0914 3.14293C11.5045 3.17044 11.6747 3.19152 11.7603 3.20617C11.8179 3.21403 11.8462 3.2201 11.8617 3.22475C11.8693 3.22689 11.8735 3.22904 11.8762 3.23047C11.8848 3.23118 11.8628 3.2319 11.8949 3.23225C12.1451 3.22939 12.3908 3.22654 12.6331 3.22368C14.5661 3.19616 16.221 3.17294 17.5677 3.154C20.2615 3.10112 21.7238 3.07253 21.7238 3.07253C21.9453 3.0661 23.0114 3.03502 25.5571 2.96105C27.6534 2.9121 30.968 2.83492 36.0228 2.71701C36.0038 2.76096 35.9731 2.82706 35.9306 2.91282C35.8571 3.05288 35.7767 3.20653 35.6894 3.37268C35.4809 3.76679 35.2556 4.19092 35.016 4.64364C33.9434 6.65674 32.5991 9.1783 31.0436 12.0965C31.0201 12.3559 30.9936 12.6464 30.9649 12.9612C30.9577 13.0398 30.9504 13.1202 30.9428 13.2016L30.9321 13.3253L30.9263 13.3878L30.9263 13.3889C30.666 13.505 33.1945 12.3795 32.1242 12.8558L32.1253 12.8547L32.128 12.8529C32.1294 12.8515 32.1311 12.8511 32.1332 12.8508C32.1366 12.85 32.1408 12.849 32.1446 12.849L32.1677 12.8497C32.2298 12.8554 32.2926 12.8697 32.3541 12.8847C32.4045 12.9076 32.4555 12.9304 32.5077 12.954C32.6181 13.0062 32.732 13.0598 32.8476 13.1141L33.0343 13.2031C33.1803 13.0819 32.8134 13.5743 32.6167 13.8637L32.4476 14.1067L32.3627 14.2286C32.3541 14.2429 32.322 14.2822 32.333 14.2764L32.3451 14.2797L32.4421 14.3072C32.6992 14.384 32.9598 14.4622 33.2228 14.5405C33.4102 14.5998 33.5989 14.6591 33.7888 14.7188C39.8137 16.8126 46.5986 18.8786 48.4012 19.5393C49.3817 19.8202 50.5071 20.15 52.2197 20.7027L52.6176 18.5274C49.9498 18.5224 46.5606 18.3759 42.9271 18.0772C39.2936 17.7763 35.4167 17.329 31.7656 16.8162C25.4304 15.9222 23.4511 16.1048 22.7502 16.4643C21.3462 17.1789 21.349 17.1793 22.5472 17.7938C23.1126 18.3227 23.7452 18.4095 23.7452 18.4095C23.7863 18.3891 24.5656 18.4541 25.9688 18.5967C27.3732 18.7482 29.4025 18.9669 31.9427 19.2409C37.0264 19.7812 44.1678 20.6363 52.5175 21L53 18.3634C49.7182 17.2214 46.2783 16.0516 42.6927 14.8406C40.8991 14.2425 39.0744 13.6343 37.2266 13.0183C36.2965 12.7189 35.3601 12.4173 34.4193 12.1143L34.2081 12.05L34.1056 12.0211L34.0538 12.0086C34.0476 12.005 34.0293 12.0089 34.0338 12.0032L34.0466 11.9793L34.0963 11.8828C36.1757 7.96165 38.2872 3.97939 40.3969 0C26.7374 0.207956 13.1042 0.415198 1.27214 0.595283C0.893192 0.987613 0.513206 1.36172 0.129423 1.71832C0.0869724 1.75691 0.0445216 1.7955 0 1.83587C0.316483 2.33111 0.521834 2.851 0.809671 3.34195C3.11133 3.91687 5.37054 4.48106 7.52725 5.01953C9.29017 5.45367 10.9692 5.86672 12.5157 6.24726C14.5744 6.74607 16.2787 7.16377 17.361 7.46498C18.9262 7.90091 20.8437 8.35183 22.7947 8.7999C23.77 9.02358 24.7536 9.24905 25.7066 9.46772L25.8846 9.50881L25.9371 9.52025L25.963 9.52489L26.0665 9.54419C26.138 9.55812 26.2087 9.57206 26.2784 9.58564C26.422 9.61744 26.5614 9.64817 26.6957 9.67782C26.52 9.87184 26.374 10.0248 26.2391 10.1505L26.1732 10.212C26.1504 10.2342 26.1476 10.2334 26.0607 10.3249C25.9264 10.4643 25.7956 10.6 25.6682 10.7326C25.4142 10.9974 25.1737 11.2482 24.9452 11.4858C24.4914 11.9636 24.0886 12.388 23.731 12.7647C23.0208 13.5225 22.5034 14.0996 22.1455 14.5509C21.4304 15.4531 21.3534 15.85 21.6523 16.1756C21.4998 16.9699 22.2501 16.8259 23.1529 15.8879C23.6406 15.7943 24.102 15.4867 24.9935 14.5959C25.4391 14.1503 25.9927 13.5597 26.7105 12.7768C27.7473 11.6416 29.0305 10.2363 30.6315 8.48404C29.045 8.08492 27.231 7.62863 25.1537 7.10624C23.7286 6.73892 22.1238 6.32551 20.3146 5.85922C18.5089 5.37899 16.4996 4.84445 14.2628 4.24952C13.7044 4.09802 13.1318 3.94295 12.5447 3.78359C12.288 3.71284 12.0284 3.64138 11.7654 3.56884C11.7019 3.54669 11.6377 3.52418 11.5725 3.50131C11.3285 3.41341 11.1345 3.33444 11.0313 3.27442" transform="matrix(-0.656059 -0.7547095 -0.7547095 0.656059 50.62 39.99963)" id="Fill-62-Copy-5" fill="#FFD40E" stroke="none" />
</svg>