<?xml version="1.0" encoding="utf-8"?>
<svg width="66px" height="66px" viewBox="0 0 66 66" version="1.1" xmlns:xlink="http://www.w3.org/1999/xlink" xmlns="http://www.w3.org/2000/svg">
  <desc>Created with Lunacy</desc>
  <defs>
    <linearGradient x1="1" y1="0" x2="0.131140649" y2="1" id="gradient_1">
      <stop offset="0" stop-color="#9238BE" />
      <stop offset="0.5355428" stop-color="#DD3B81" />
      <stop offset="1" stop-color="#FDD97C" />
    </linearGradient>
  </defs>
  <g id="iconfinder_38-instagram_1161953" transform="translate(19.2251 18.45)">
    <path d="M0 7.2C0 3.20625 3.2625 0 7.2 0C11.1375 0 14.4 3.2625 14.4 7.2C14.4 11.1375 11.1937 14.4 7.2 14.4C3.20625 14.4 0 11.1937 0 7.2ZM2.5875 7.2C2.5875 9.73125 4.66875 11.8125 7.2 11.8125C9.73125 11.8125 11.8125 9.73125 11.8125 7.2C11.8125 4.66875 9.73125 2.5875 7.2 2.5875C4.66875 2.5875 2.5875 4.66875 2.5875 7.2Z" transform="translate(6.75 6.693756)" id="Shape" fill="url(#gradient_1)" fill-rule="evenodd" stroke="none" />
    <path d="M1.63125 3.2625C2.53217 3.2625 3.2625 2.53216 3.2625 1.63125C3.2625 0.730335 2.53217 0 1.63125 0C0.730336 0 0 0.730335 0 1.63125C0 2.53216 0.730336 3.2625 1.63125 3.2625Z" transform="translate(19.7998 4.893753)" id="Oval" fill="#A639AD" stroke="none" />
    <path d="M19.7437 0C22.1063 0 24.1875 0.7875 25.65 2.30625C27.1125 3.76875 27.9 5.79375 27.9 8.15625L27.9 19.7437C27.9 22.1625 27.1125 24.2437 25.5938 25.7062C24.1313 27.1125 22.1063 27.9 19.6875 27.9L8.2125 27.9C5.90625 27.9 3.88125 27.1688 2.3625 25.7062C0.7875 24.1875 0 22.1063 0 19.6875L0 8.15625C0 3.2625 3.2625 0 8.15625 0L19.7437 0ZM23.7937 23.85C24.8062 22.8937 25.425 21.4875 25.425 19.7437L25.425 8.15625C25.425 6.525 24.8625 5.11875 23.9063 4.10625C22.8937 3.09375 21.4875 2.5875 19.8 2.5875L8.2125 2.5875C6.525 2.5875 5.0625 3.09375 4.10625 4.05C3.09375 5.0625 2.5875 6.46875 2.5875 8.15625L2.5875 19.6875C2.5875 21.4312 3.09375 22.8375 4.10625 23.85C5.11875 24.8062 6.525 25.3125 8.2125 25.3125L19.6875 25.3125C21.375 25.3125 22.7813 24.8062 23.7937 23.85Z" id="Shape" fill="url(#gradient_1)" fill-rule="evenodd" stroke="none" />
  </g>
  <path d="M32 64C49.6731 64 64 49.6731 64 32C64 14.3269 49.6731 0 32 0C14.3269 0 0 14.3269 0 32C0 49.6731 14.3269 64 32 64Z" transform="matrix(-1 0 0 1 65 1)" id="Oval-Copy" fill="none" stroke="#DDDCE4" stroke-width="2" stroke-linecap="round" stroke-linejoin="round" stroke-dasharray="5 5" />
</svg>