<?xml version="1.0" encoding="utf-8"?>
<svg width="100px" height="72px" viewBox="0 0 100 72" version="1.1" xmlns:xlink="http://www.w3.org/1999/xlink" xmlns="http://www.w3.org/2000/svg">
  <desc>Created with Lunacy</desc>
  <path d="M17.3189 67.34C27.5765 67.9048 37.8533 68.0411 48.1301 67.9827C49.4984 67.9827 50.8688 67.987 52.2399 67.9913C54.9842 68 57.7314 68.0087 60.4701 67.9827C67.4691 67.8853 74.4682 67.6321 81.4479 67.1647C87.9842 66.7167 92.4382 63.8927 94.3084 56.6864C95.1375 53.5508 95.3496 50.3566 95.5617 47.1625C96.1787 37.697 96.1594 28.2316 95.4074 18.7661C95.1375 15.2798 94.6362 11.8909 93.3444 8.61893C92.014 5.21057 89.546 3.10713 86.2296 1.86065C83.7809 0.945265 81.1973 0.906312 78.6329 0.769978C70.3227 0.341499 61.9933 0.12726 53.6831 0.0298785C42.8857 -0.0869793 32.0883 0.146736 21.3101 0.594691C18.1287 0.731025 14.9281 0.711549 11.8045 1.33479C8.08327 2.07489 4.99829 3.84723 3.22442 7.4114C2.47246 8.93055 1.91331 10.5276 1.52769 12.1636C0.525067 16.351 0.390099 20.6553 0.216569 24.9206C-0.130491 32.9448 -0.0919286 40.9885 0.563629 49.0322C0.872127 52.9275 1.39272 56.7449 3.05089 60.3675C4.03423 62.5488 5.596 64.0874 7.62052 65.1976C10.6477 66.8531 13.9833 67.1452 17.3189 67.34ZM65.9266 32.6137C56.556 37.7944 47.3396 42.8972 38.0076 48.0584L38.0076 17.169C47.3203 22.3302 56.5367 27.4136 65.9266 32.6137Z" transform="translate(2 2)" id="Shape" fill="#FFFFFF" fill-rule="evenodd" stroke="none" />
</svg>